<?xml version="1.0" ?><svg height="512" preserveAspectRatio="xMidYMid" viewBox="0 0 512 512" width="512" xmlns="http://www.w3.org/2000/svg" xmlns:xlink="http://www.w3.org/1999/xlink"><defs><style>
      .cls-1 {
        fill: #000;
        fill-rule: evenodd;
      }
    </style></defs><path class="cls-1" d="M304.501,83.916 C304.501,91.355 305.728,98.560 307.970,105.412 L166.319,189.119 C148.882,178.376 127.131,171.985 103.496,171.985 C46.205,171.985 -0.224,209.598 -0.224,255.981 C-0.224,302.353 46.205,339.944 103.496,339.944 C127.131,339.944 148.882,333.553 166.319,322.809 L307.970,406.517 C305.728,413.369 304.501,420.573 304.501,428.013 C304.501,474.410 350.965,512.001 408.266,512.001 C465.548,512.001 511.978,474.410 511.978,428.013 C511.978,381.630 465.548,344.022 408.266,344.022 C388.980,344.022 370.888,348.321 355.440,355.729 L206.288,267.559 C206.915,263.778 207.253,259.886 207.253,255.981 C207.253,252.043 206.915,248.151 206.288,244.369 L355.440,156.199 C370.888,163.607 388.980,167.906 408.266,167.906 C465.548,167.906 511.978,130.298 511.978,83.916 C511.978,37.519 465.548,-0.073 408.266,-0.073 C350.965,-0.073 304.501,37.519 304.501,83.916 Z"/></svg>